<svg id="Capa_1" enable-background="new 0 0 507.686 507.686" height="512" viewBox="0 0 507.686 507.686" width="512" xmlns="http://www.w3.org/2000/svg"><g><path d="m484.728 498.714-4.262-21.308c-4.245-21.224-17.399-39.655-36.092-50.566l-76.238-44.51c-.92-.537-1.492-1.534-1.492-2.601v-61.34l1.669-1.754c3.564-3.745 5.518-8.654 5.5-13.823l-.024-7.445h1.766c11.591 0 22.487-4.514 30.684-12.709 8.195-8.196 12.709-19.093 12.708-30.683v-19.298c10.654-19.511 16.292-41.502 16.292-63.75v-47.268c0-53.449-43.483-96.933-96.932-96.933h-93.308c-5.297 0-9.959-3.383-11.602-8.419l-2.26-6.932c-1.559-4.777-5.601-8.29-10.549-9.167-4.953-.878-9.952 1.032-13.056 4.984l-4.115 5.237c-13.183 16.779-20.443 37.771-20.443 59.11v14.427c0 22.149 3.404 44.065 10.102 65.165l.159 51.133-28.97 32.668c-2.663 3.002-4.13 6.865-4.13 10.878v8.83c0 9.039 7.354 16.393 16.394 16.393h6.208v.936c0 7.294 5.933 13.362 13.229 13.527l29.657.661c.491.011.813.251.995.451.184.199.396.54.364 1.03l-1.279 20.15c-.032.515-.345.968-.815 1.181l-22.843 10.354c-7.408 3.356-10.744 11.861-7.595 19.36l8.83 21.026c3.077 7.328 10.11 11.987 18.02 11.987.178 0 .356-.003.535-.008l44.208-1.176v11.213c0 1.066-.572 2.063-1.493 2.602l-76.237 44.508c-18.692 10.912-31.847 29.344-36.092 50.567l-4.262 21.307c-.813 4.062 1.821 8.013 5.883 8.826.497.1.991.146 1.479.146 3.502 0 6.633-2.465 7.347-6.029l4.262-21.309c3.404-17.021 13.954-31.803 28.945-40.555l39.524-23.075 17.645 10.567c19.184 11.488 40.955 17.495 63.257 17.495 1.632 0 3.269-.032 4.905-.097 4.139-.163 7.361-3.65 7.198-7.79-.163-4.139-3.65-7.35-7.79-7.198-21.077.827-41.784-4.451-59.863-15.279l-10.568-6.329 21.928-12.802c5.51-3.216 8.932-9.176 8.932-15.556v-11.612l9.643-.257c19.11-.507 36.894-8.414 50.073-22.265l10.886-11.441v45.575c0 6.38 3.422 12.34 8.931 15.555l21.929 12.803-10.568 6.329c-6.844 4.099-14.194 7.451-21.849 9.964-3.936 1.292-6.079 5.53-4.787 9.465 1.037 3.159 3.972 5.163 7.125 5.163.774 0 1.563-.121 2.34-.376 8.711-2.859 17.081-6.677 24.878-11.347l17.645-10.566 39.524 23.075c14.991 8.751 25.541 23.532 28.945 40.554l4.262 21.308c.713 3.565 3.845 6.03 7.347 6.03.487 0 .982-.048 1.479-.146 4.06-.808 6.694-4.759 5.882-8.821zm-154.837-163.458c-10.424 10.955-24.489 17.209-39.604 17.61l-68.851 1.832c-1.893.026-3.593-1.047-4.326-2.794l-8.798-20.95 22.769-10.32c5.532-2.509 9.208-7.832 9.593-13.893l1.279-20.149c.281-4.434-1.28-8.853-4.283-12.125-3.004-3.271-7.272-5.205-11.713-5.304l-28.22-.629v-6.999c0-4.143-3.357-7.5-7.5-7.5h-13.708c-.769 0-1.394-.625-1.394-1.393v-8.83c0-.341.124-.668.352-.924l30.868-34.809c1.222-1.379 1.895-3.158 1.889-5l-.171-55.102c0-2.086 1.428-3.067 2.042-3.394.614-.323 2.229-.955 3.953.217l5.005 3.396c22.109 15.005 46.286 26.578 71.858 34.4 3.958 1.213 8.153-1.017 9.365-4.979 1.212-3.961-1.018-8.153-4.979-9.365-24.136-7.383-46.954-18.307-67.821-32.469l-5.005-3.396c-5.631-3.822-12.819-4.298-18.898-1.303-3.73-15.411-5.62-31.2-5.62-47.118v-14.424c0-17.993 6.122-35.695 17.238-49.843l2.482-3.16 1.441 4.42c3.661 11.226 14.054 18.769 25.862 18.769h93.308c45.178 0 81.932 36.755 81.932 81.933v47.268c0 15.279-2.989 30.424-8.724 44.517-4.305-4.11-10.129-6.643-16.538-6.643-5.743 0-11.302 2.065-15.652 5.817l-8.305 7.16.307-26.608c.081-7.126-5.416-13.194-12.512-13.816l-11.815-1.038c-6.838-.6-13.783-1.501-20.641-2.68-4.09-.707-7.96 2.039-8.662 6.121-.701 4.083 2.039 7.961 6.121 8.662 7.265 1.248 14.623 2.204 21.87 2.84l10.625.934-.391 34.071c-.05 4.352 2.468 8.35 6.414 10.185 3.947 1.835 8.626 1.186 11.923-1.657l14.86-12.813c1.629-1.404 3.709-2.178 5.857-2.178 4.946 0 8.97 4.022 8.97 8.966v21.208c0 7.584-2.953 14.714-8.315 20.076s-12.492 8.315-20.076 8.315h-9.29c-1.993 0-3.904.794-5.312 2.205-1.407 1.412-2.195 3.326-2.188 5.319l.049 14.971c.004 1.283-.48 2.502-1.366 3.433z"/><path d="m382.051 265.931c4.143 0 7.5-3.357 7.5-7.5v-7.469c0-4.143-3.357-7.5-7.5-7.5s-7.5 3.357-7.5 7.5v7.469c0 4.143 3.358 7.5 7.5 7.5z"/><path d="m121.749 228.432c-5.725-2.218-11.969-2.074-17.584.404-5.616 2.479-9.93 6.997-12.147 12.721s-2.074 11.969.404 17.584c2.479 5.616 6.997 9.93 12.722 12.147 1.023.397 3.037 1.177 6.895 1.177 4.293 0 10.87-.966 20.906-4.501 3.57-1.258 6.402-4.005 7.771-7.537 1.369-3.531 1.127-7.47-.664-10.806-9.557-17.8-16.14-20.351-18.303-21.189zm-11.186 28.87c-1.988-.771-3.557-2.269-4.418-4.219-.86-1.95-.91-4.119-.141-6.106.771-1.988 2.269-3.557 4.219-4.418 1.032-.455 2.125-.684 3.221-.684.973 0 1.947.18 2.882.542.948.399 4.357 3.367 9.342 12.179-9.628 3.154-14.145 3.046-15.105 2.706z"/><path d="m132.946 337.491c-19.057-6.716-25.639-4.164-27.803-3.325-11.815 4.577-17.703 17.915-13.125 29.731 2.218 5.724 6.531 10.24 12.147 12.72 2.973 1.313 6.12 1.97 9.274 1.97 2.805 0 5.615-.521 8.31-1.564 2.163-.838 8.745-3.389 18.303-21.19 1.79-3.336 2.032-7.274.663-10.807-1.368-3.531-4.201-6.279-7.769-7.535zm-16.62 25.546c-1.987.771-4.154.719-6.103-.143-1.95-.86-3.448-2.43-4.219-4.417-1.59-4.104.455-8.735 4.554-10.323.259-.092.772-.167 1.57-.167 2.184 0 6.493.562 13.539 2.871-4.984 8.811-8.393 11.779-9.341 12.179z"/><path d="m70.005 294.14c-15.445-13.103-22.42-13.103-24.712-13.103-12.396 0-22.482 10.086-22.482 22.482s10.086 22.482 22.482 22.482c2.292 0 9.266 0 24.711-13.103 2.762-2.343 4.346-5.761 4.347-9.379 0-3.616-1.584-7.035-4.346-9.379zm-24.712 16.862c-4.126 0-7.482-3.356-7.482-7.482s3.356-7.482 7.469-7.482c.998.042 5.059 1.521 12.522 7.482-7.464 5.962-11.522 7.44-12.509 7.482z"/><path d="m161.42 311.02h13.982c4.143 0 7.5-3.357 7.5-7.5s-3.357-7.5-7.5-7.5h-13.982c-4.143 0-7.5 3.357-7.5 7.5s3.358 7.5 7.5 7.5z"/><path d="m116.028 311.02c4.143 0 7.5-3.357 7.5-7.5s-3.357-7.5-7.5-7.5h-8.454c-4.143 0-7.5 3.357-7.5 7.5s3.357 7.5 7.5 7.5z"/><path d="m51.053 247.639 13.124 5.009c.88.336 1.783.495 2.672.495 3.021 0 5.868-1.838 7.009-4.828 1.478-3.869-.463-8.204-4.333-9.681l-13.124-5.009c-3.872-1.479-8.204.463-9.681 4.333s.463 8.204 4.333 9.681z"/><path d="m64.177 354.392-13.124 5.009c-3.87 1.477-5.811 5.812-4.333 9.681 1.141 2.99 3.987 4.828 7.009 4.828.889 0 1.792-.159 2.672-.495l13.124-5.009c3.87-1.477 5.811-5.812 4.333-9.681-1.477-3.87-5.809-5.811-9.681-4.333z"/></g></svg>